<svg width="42" height="42" viewBox="0 0 42 42" fill="none" xmlns="http://www.w3.org/2000/svg">
<circle cx="21" cy="21" r="21" fill="white"/>
<path fill-rule="evenodd" clip-rule="evenodd" d="M21 0C9.40203 0 0 9.40203 0 21C0 32.5979 9.40203 42 21 42C32.5979 42 42 32.5979 42 21C42 9.40203 32.5979 0 21 0ZM3.81818 21C3.81818 24.9904 5.1785 28.6631 7.46069 31.5796C10.6001 27.4697 15.552 24.8182 21.1231 24.8182C26.6219 24.8182 31.5176 27.4014 34.6624 31.4204C36.8703 28.53 38.1818 24.9182 38.1818 21C38.1818 11.5107 30.4893 3.81818 21 3.81818C11.5107 3.81818 3.81818 11.5107 3.81818 21Z" fill="#E0E0E0"/>
<path fill-rule="evenodd" clip-rule="evenodd" d="M28.6363 15.2726C28.6363 19.49 25.2173 22.909 20.9999 22.909C16.7824 22.909 13.3635 19.49 13.3635 15.2726C13.3635 11.0551 16.7824 7.63623 20.9999 7.63623C25.2173 7.63623 28.6363 11.0551 28.6363 15.2726Z" fill="#E0E0E0"/>
</svg>
